<svg xmlns="http://www.w3.org/2000/svg" viewBox="0 0 1600 400" width="1600" height="400" font-family="Inter, 'Segoe UI', 'Helvetica Neue', Arial, sans-serif"><defs><radialGradient id="bg" cx="20%" cy="10%" r="120%"><stop offset="0%" stop-color="#0d1117"/><stop offset="100%" stop-color="#05070a"/></radialGradient><linearGradient id="word" x1="0" y1="0" x2="1" y2="0.3"><stop offset="0%" stop-color="#f59e0b"/><stop offset="100%" stop-color="#4ade80"/></linearGradient><linearGradient id="rule" x1="0" y1="0" x2="1" y2="0"><stop offset="0%" stop-color="#f59e0b"/><stop offset="100%" stop-color="#4ade80" stop-opacity="0"/></linearGradient><linearGradient id="sheen" x1="0" y1="0" x2="0" y2="1"><stop offset="0%" stop-color="#ffffff" stop-opacity="0.9"/><stop offset="100%" stop-color="#ffffff" stop-opacity="0"/></linearGradient><filter id="soft" x="-20%" y="-20%" width="140%" height="140%"><feDropShadow dx="0" dy="2" stdDeviation="4" flood-color="#000000" flood-opacity="0.25"/></filter><marker id="bah" viewBox="0 0 10 10" refX="8.5" refY="5" markerWidth="6" markerHeight="6" orient="auto-start-reverse"><path d="M0 0 L10 5 L0 10 L3 5 Z" fill="#7c8aa5"/></marker></defs><rect width="1600" height="400" fill="url(#bg)"/><g opacity="0.55"><circle cx="30" cy="50" r="1" fill="#1b2438"/><circle cx="60" cy="50" r="1" fill="#1b2438"/><circle cx="90" cy="50" r="1" fill="#1b2438"/><circle cx="120" cy="50" r="1" fill="#1b2438"/><circle cx="150" cy="50" r="1" fill="#1b2438"/><circle cx="180" cy="50" r="1" fill="#1b2438"/><circle cx="210" cy="50" r="1" fill="#1b2438"/><circle cx="240" cy="50" r="1" fill="#1b2438"/><circle cx="270" cy="50" r="1" fill="#1b2438"/><circle cx="300" cy="50" r="1" fill="#1b2438"/><circle cx="330" cy="50" r="1" fill="#1b2438"/><circle cx="360" cy="50" r="1" fill="#1b2438"/><circle cx="390" cy="50" r="1" fill="#1b2438"/><circle cx="420" cy="50" r="1" fill="#1b2438"/><circle cx="450" cy="50" r="1" fill="#1b2438"/><circle cx="480" cy="50" r="1" fill="#1b2438"/><circle cx="510" cy="50" r="1" fill="#1b2438"/><circle cx="540" cy="50" r="1" fill="#1b2438"/><circle cx="570" cy="50" r="1" fill="#1b2438"/><circle cx="600" cy="50" r="1" fill="#1b2438"/><circle cx="630" cy="50" r="1" fill="#1b2438"/><circle cx="660" cy="50" r="1" fill="#1b2438"/><circle cx="690" cy="50" r="1" fill="#1b2438"/><circle cx="720" cy="50" r="1" fill="#1b2438"/><circle cx="750" cy="50" r="1" fill="#1b2438"/><circle cx="780" cy="50" r="1" fill="#1b2438"/><circle cx="810" cy="50" r="1" fill="#1b2438"/><circle cx="840" cy="50" r="1" fill="#1b2438"/><circle cx="870" cy="50" r="1" fill="#1b2438"/><circle cx="900" cy="50" r="1" fill="#1b2438"/><circle cx="930" cy="50" r="1" fill="#1b2438"/><circle cx="960" cy="50" r="1" fill="#1b2438"/><circle cx="990" cy="50" r="1" fill="#1b2438"/><circle cx="1020" cy="50" r="1" fill="#1b2438"/><circle cx="1050" cy="50" r="1" fill="#1b2438"/><circle cx="1080" cy="50" r="1" fill="#1b2438"/><circle cx="1110" cy="50" r="1" fill="#1b2438"/><circle cx="1140" cy="50" r="1" fill="#1b2438"/><circle cx="1170" cy="50" r="1" fill="#1b2438"/><circle cx="1200" cy="50" r="1" fill="#1b2438"/><circle cx="1230" cy="50" r="1" fill="#1b2438"/><circle cx="1260" cy="50" r="1" fill="#1b2438"/><circle cx="1290" cy="50" r="1" fill="#1b2438"/><circle cx="1320" cy="50" r="1" fill="#1b2438"/><circle cx="1350" cy="50" r="1" fill="#1b2438"/><circle cx="1380" cy="50" r="1" fill="#1b2438"/><circle cx="1410" cy="50" r="1" fill="#1b2438"/><circle cx="1440" cy="50" r="1" fill="#1b2438"/><circle cx="1470" cy="50" r="1" fill="#1b2438"/><circle cx="1500" cy="50" r="1" fill="#1b2438"/><circle cx="1530" cy="50" r="1" fill="#1b2438"/><circle cx="1560" cy="50" r="1" fill="#1b2438"/><circle cx="30" cy="80" r="1" fill="#1b2438"/><circle cx="60" cy="80" r="1" fill="#1b2438"/><circle cx="90" cy="80" r="1" fill="#1b2438"/><circle cx="120" cy="80" r="1" fill="#1b2438"/><circle cx="150" cy="80" r="1" fill="#1b2438"/><circle cx="180" cy="80" r="1" fill="#1b2438"/><circle cx="210" cy="80" r="1" fill="#1b2438"/><circle cx="240" cy="80" r="1" fill="#1b2438"/><circle cx="270" cy="80" r="1" fill="#1b2438"/><circle cx="300" cy="80" r="1" fill="#1b2438"/><circle cx="330" cy="80" r="1" fill="#1b2438"/><circle cx="360" cy="80" r="1" fill="#1b2438"/><circle cx="390" cy="80" r="1" fill="#1b2438"/><circle cx="420" cy="80" r="1" fill="#1b2438"/><circle cx="450" cy="80" r="1" fill="#1b2438"/><circle cx="480" cy="80" r="1" fill="#1b2438"/><circle cx="510" cy="80" r="1" fill="#1b2438"/><circle cx="540" cy="80" r="1" fill="#1b2438"/><circle cx="570" cy="80" r="1" fill="#1b2438"/><circle cx="600" cy="80" r="1" fill="#1b2438"/><circle cx="630" cy="80" r="1" fill="#1b2438"/><circle cx="660" cy="80" r="1" fill="#1b2438"/><circle cx="690" cy="80" r="1" fill="#1b2438"/><circle cx="720" cy="80" r="1" fill="#1b2438"/><circle cx="750" cy="80" r="1" fill="#1b2438"/><circle cx="780" cy="80" r="1" fill="#1b2438"/><circle cx="810" cy="80" r="1" fill="#1b2438"/><circle cx="840" cy="80" r="1" fill="#1b2438"/><circle cx="870" cy="80" r="1" fill="#1b2438"/><circle cx="900" cy="80" r="1" fill="#1b2438"/><circle cx="930" cy="80" r="1" fill="#1b2438"/><circle cx="960" cy="80" r="1" fill="#1b2438"/><circle cx="990" cy="80" r="1" fill="#1b2438"/><circle cx="1020" cy="80" r="1" fill="#1b2438"/><circle cx="1050" cy="80" r="1" fill="#1b2438"/><circle cx="1080" cy="80" r="1" fill="#1b2438"/><circle cx="1110" cy="80" r="1" fill="#1b2438"/><circle cx="1140" cy="80" r="1" fill="#1b2438"/><circle cx="1170" cy="80" r="1" fill="#1b2438"/><circle cx="1200" cy="80" r="1" fill="#1b2438"/><circle cx="1230" cy="80" r="1" fill="#1b2438"/><circle cx="1260" cy="80" r="1" fill="#1b2438"/><circle cx="1290" cy="80" r="1" fill="#1b2438"/><circle cx="1320" cy="80" r="1" fill="#1b2438"/><circle cx="1350" cy="80" r="1" fill="#1b2438"/><circle cx="1380" cy="80" r="1" fill="#1b2438"/><circle cx="1410" cy="80" r="1" fill="#1b2438"/><circle cx="1440" cy="80" r="1" fill="#1b2438"/><circle cx="1470" cy="80" r="1" fill="#1b2438"/><circle cx="1500" cy="80" r="1" fill="#1b2438"/><circle cx="1530" cy="80" r="1" fill="#1b2438"/><circle cx="1560" cy="80" r="1" fill="#1b2438"/><circle cx="30" cy="110" r="1" fill="#1b2438"/><circle cx="60" cy="110" r="1" fill="#1b2438"/><circle cx="90" cy="110" r="1" fill="#1b2438"/><circle cx="120" cy="110" r="1" fill="#1b2438"/><circle cx="150" cy="110" r="1" fill="#1b2438"/><circle cx="180" cy="110" r="1" fill="#1b2438"/><circle cx="210" cy="110" r="1" fill="#1b2438"/><circle cx="240" cy="110" r="1" fill="#1b2438"/><circle cx="270" cy="110" r="1" fill="#1b2438"/><circle cx="300" cy="110" r="1" fill="#1b2438"/><circle cx="330" cy="110" r="1" fill="#1b2438"/><circle cx="360" cy="110" r="1" fill="#1b2438"/><circle cx="390" cy="110" r="1" fill="#1b2438"/><circle cx="420" cy="110" r="1" fill="#1b2438"/><circle cx="450" cy="110" r="1" fill="#1b2438"/><circle cx="480" cy="110" r="1" fill="#1b2438"/><circle cx="510" cy="110" r="1" fill="#1b2438"/><circle cx="540" cy="110" r="1" fill="#1b2438"/><circle cx="570" cy="110" r="1" fill="#1b2438"/><circle cx="600" cy="110" r="1" fill="#1b2438"/><circle cx="630" cy="110" r="1" fill="#1b2438"/><circle cx="660" cy="110" r="1" fill="#1b2438"/><circle cx="690" cy="110" r="1" fill="#1b2438"/><circle cx="720" cy="110" r="1" fill="#1b2438"/><circle cx="750" cy="110" r="1" fill="#1b2438"/><circle cx="780" cy="110" r="1" fill="#1b2438"/><circle cx="810" cy="110" r="1" fill="#1b2438"/><circle cx="840" cy="110" r="1" fill="#1b2438"/><circle cx="870" cy="110" r="1" fill="#1b2438"/><circle cx="900" cy="110" r="1" fill="#1b2438"/><circle cx="930" cy="110" r="1" fill="#1b2438"/><circle cx="960" cy="110" r="1" fill="#1b2438"/><circle cx="990" cy="110" r="1" fill="#1b2438"/><circle cx="1020" cy="110" r="1" fill="#1b2438"/><circle cx="1050" cy="110" r="1" fill="#1b2438"/><circle cx="1080" cy="110" r="1" fill="#1b2438"/><circle cx="1110" cy="110" r="1" fill="#1b2438"/><circle cx="1140" cy="110" r="1" fill="#1b2438"/><circle cx="1170" cy="110" r="1" fill="#1b2438"/><circle cx="1200" cy="110" r="1" fill="#1b2438"/><circle cx="1230" cy="110" r="1" fill="#1b2438"/><circle cx="1260" cy="110" r="1" fill="#1b2438"/><circle cx="1290" cy="110" r="1" fill="#1b2438"/><circle cx="1320" cy="110" r="1" fill="#1b2438"/><circle cx="1350" cy="110" r="1" fill="#1b2438"/><circle cx="1380" cy="110" r="1" fill="#1b2438"/><circle cx="1410" cy="110" r="1" fill="#1b2438"/><circle cx="1440" cy="110" r="1" fill="#1b2438"/><circle cx="1470" cy="110" r="1" fill="#1b2438"/><circle cx="1500" cy="110" r="1" fill="#1b2438"/><circle cx="1530" cy="110" r="1" fill="#1b2438"/><circle cx="1560" cy="110" r="1" fill="#1b2438"/><circle cx="30" cy="140" r="1" fill="#1b2438"/><circle cx="60" cy="140" r="1" fill="#1b2438"/><circle cx="90" cy="140" r="1" fill="#1b2438"/><circle cx="120" cy="140" r="1" fill="#1b2438"/><circle cx="150" cy="140" r="1" fill="#1b2438"/><circle cx="180" cy="140" r="1" fill="#1b2438"/><circle cx="210" cy="140" r="1" fill="#1b2438"/><circle cx="240" cy="140" r="1" fill="#1b2438"/><circle cx="270" cy="140" r="1" fill="#1b2438"/><circle cx="300" cy="140" r="1" fill="#1b2438"/><circle cx="330" cy="140" r="1" fill="#1b2438"/><circle cx="360" cy="140" r="1" fill="#1b2438"/><circle cx="390" cy="140" r="1" fill="#1b2438"/><circle cx="420" cy="140" r="1" fill="#1b2438"/><circle cx="450" cy="140" r="1" fill="#1b2438"/><circle cx="480" cy="140" r="1" fill="#1b2438"/><circle cx="510" cy="140" r="1" fill="#1b2438"/><circle cx="540" cy="140" r="1" fill="#1b2438"/><circle cx="570" cy="140" r="1" fill="#1b2438"/><circle cx="600" cy="140" r="1" fill="#1b2438"/><circle cx="630" cy="140" r="1" fill="#1b2438"/><circle cx="660" cy="140" r="1" fill="#1b2438"/><circle cx="690" cy="140" r="1" fill="#1b2438"/><circle cx="720" cy="140" r="1" fill="#1b2438"/><circle cx="750" cy="140" r="1" fill="#1b2438"/><circle cx="780" cy="140" r="1" fill="#1b2438"/><circle cx="810" cy="140" r="1" fill="#1b2438"/><circle cx="840" cy="140" r="1" fill="#1b2438"/><circle cx="870" cy="140" r="1" fill="#1b2438"/><circle cx="900" cy="140" r="1" fill="#1b2438"/><circle cx="930" cy="140" r="1" fill="#1b2438"/><circle cx="960" cy="140" r="1" fill="#1b2438"/><circle cx="990" cy="140" r="1" fill="#1b2438"/><circle cx="1020" cy="140" r="1" fill="#1b2438"/><circle cx="1050" cy="140" r="1" fill="#1b2438"/><circle cx="1080" cy="140" r="1" fill="#1b2438"/><circle cx="1110" cy="140" r="1" fill="#1b2438"/><circle cx="1140" cy="140" r="1" fill="#1b2438"/><circle cx="1170" cy="140" r="1" fill="#1b2438"/><circle cx="1200" cy="140" r="1" fill="#1b2438"/><circle cx="1230" cy="140" r="1" fill="#1b2438"/><circle cx="1260" cy="140" r="1" fill="#1b2438"/><circle cx="1290" cy="140" r="1" fill="#1b2438"/><circle cx="1320" cy="140" r="1" fill="#1b2438"/><circle cx="1350" cy="140" r="1" fill="#1b2438"/><circle cx="1380" cy="140" r="1" fill="#1b2438"/><circle cx="1410" cy="140" r="1" fill="#1b2438"/><circle cx="1440" cy="140" r="1" fill="#1b2438"/><circle cx="1470" cy="140" r="1" fill="#1b2438"/><circle cx="1500" cy="140" r="1" fill="#1b2438"/><circle cx="1530" cy="140" r="1" fill="#1b2438"/><circle cx="1560" cy="140" r="1" fill="#1b2438"/><circle cx="30" cy="170" r="1" fill="#1b2438"/><circle cx="60" cy="170" r="1" fill="#1b2438"/><circle cx="90" cy="170" r="1" fill="#1b2438"/><circle cx="120" cy="170" r="1" fill="#1b2438"/><circle cx="150" cy="170" r="1" fill="#1b2438"/><circle cx="180" cy="170" r="1" fill="#1b2438"/><circle cx="210" cy="170" r="1" fill="#1b2438"/><circle cx="240" cy="170" r="1" fill="#1b2438"/><circle cx="270" cy="170" r="1" fill="#1b2438"/><circle cx="300" cy="170" r="1" fill="#1b2438"/><circle cx="330" cy="170" r="1" fill="#1b2438"/><circle cx="360" cy="170" r="1" fill="#1b2438"/><circle cx="390" cy="170" r="1" fill="#1b2438"/><circle cx="420" cy="170" r="1" fill="#1b2438"/><circle cx="450" cy="170" r="1" fill="#1b2438"/><circle cx="480" cy="170" r="1" fill="#1b2438"/><circle cx="510" cy="170" r="1" fill="#1b2438"/><circle cx="540" cy="170" r="1" fill="#1b2438"/><circle cx="570" cy="170" r="1" fill="#1b2438"/><circle cx="600" cy="170" r="1" fill="#1b2438"/><circle cx="630" cy="170" r="1" fill="#1b2438"/><circle cx="660" cy="170" r="1" fill="#1b2438"/><circle cx="690" cy="170" r="1" fill="#1b2438"/><circle cx="720" cy="170" r="1" fill="#1b2438"/><circle cx="750" cy="170" r="1" fill="#1b2438"/><circle cx="780" cy="170" r="1" fill="#1b2438"/><circle cx="810" cy="170" r="1" fill="#1b2438"/><circle cx="840" cy="170" r="1" fill="#1b2438"/><circle cx="870" cy="170" r="1" fill="#1b2438"/><circle cx="900" cy="170" r="1" fill="#1b2438"/><circle cx="930" cy="170" r="1" fill="#1b2438"/><circle cx="960" cy="170" r="1" fill="#1b2438"/><circle cx="990" cy="170" r="1" fill="#1b2438"/><circle cx="1020" cy="170" r="1" fill="#1b2438"/><circle cx="1050" cy="170" r="1" fill="#1b2438"/><circle cx="1080" cy="170" r="1" fill="#1b2438"/><circle cx="1110" cy="170" r="1" fill="#1b2438"/><circle cx="1140" cy="170" r="1" fill="#1b2438"/><circle cx="1170" cy="170" r="1" fill="#1b2438"/><circle cx="1200" cy="170" r="1" fill="#1b2438"/><circle cx="1230" cy="170" r="1" fill="#1b2438"/><circle cx="1260" cy="170" r="1" fill="#1b2438"/><circle cx="1290" cy="170" r="1" fill="#1b2438"/><circle cx="1320" cy="170" r="1" fill="#1b2438"/><circle cx="1350" cy="170" r="1" fill="#1b2438"/><circle cx="1380" cy="170" r="1" fill="#1b2438"/><circle cx="1410" cy="170" r="1" fill="#1b2438"/><circle cx="1440" cy="170" r="1" fill="#1b2438"/><circle cx="1470" cy="170" r="1" fill="#1b2438"/><circle cx="1500" cy="170" r="1" fill="#1b2438"/><circle cx="1530" cy="170" r="1" fill="#1b2438"/><circle cx="1560" cy="170" r="1" fill="#1b2438"/><circle cx="30" cy="200" r="1" fill="#1b2438"/><circle cx="60" cy="200" r="1" fill="#1b2438"/><circle cx="90" cy="200" r="1" fill="#1b2438"/><circle cx="120" cy="200" r="1" fill="#1b2438"/><circle cx="150" cy="200" r="1" fill="#1b2438"/><circle cx="180" cy="200" r="1" fill="#1b2438"/><circle cx="210" cy="200" r="1" fill="#1b2438"/><circle cx="240" cy="200" r="1" fill="#1b2438"/><circle cx="270" cy="200" r="1" fill="#1b2438"/><circle cx="300" cy="200" r="1" fill="#1b2438"/><circle cx="330" cy="200" r="1" fill="#1b2438"/><circle cx="360" cy="200" r="1" fill="#1b2438"/><circle cx="390" cy="200" r="1" fill="#1b2438"/><circle cx="420" cy="200" r="1" fill="#1b2438"/><circle cx="450" cy="200" r="1" fill="#1b2438"/><circle cx="480" cy="200" r="1" fill="#1b2438"/><circle cx="510" cy="200" r="1" fill="#1b2438"/><circle cx="540" cy="200" r="1" fill="#1b2438"/><circle cx="570" cy="200" r="1" fill="#1b2438"/><circle cx="600" cy="200" r="1" fill="#1b2438"/><circle cx="630" cy="200" r="1" fill="#1b2438"/><circle cx="660" cy="200" r="1" fill="#1b2438"/><circle cx="690" cy="200" r="1" fill="#1b2438"/><circle cx="720" cy="200" r="1" fill="#1b2438"/><circle cx="750" cy="200" r="1" fill="#1b2438"/><circle cx="780" cy="200" r="1" fill="#1b2438"/><circle cx="810" cy="200" r="1" fill="#1b2438"/><circle cx="840" cy="200" r="1" fill="#1b2438"/><circle cx="870" cy="200" r="1" fill="#1b2438"/><circle cx="900" cy="200" r="1" fill="#1b2438"/><circle cx="930" cy="200" r="1" fill="#1b2438"/><circle cx="960" cy="200" r="1" fill="#1b2438"/><circle cx="990" cy="200" r="1" fill="#1b2438"/><circle cx="1020" cy="200" r="1" fill="#1b2438"/><circle cx="1050" cy="200" r="1" fill="#1b2438"/><circle cx="1080" cy="200" r="1" fill="#1b2438"/><circle cx="1110" cy="200" r="1" fill="#1b2438"/><circle cx="1140" cy="200" r="1" fill="#1b2438"/><circle cx="1170" cy="200" r="1" fill="#1b2438"/><circle cx="1200" cy="200" r="1" fill="#1b2438"/><circle cx="1230" cy="200" r="1" fill="#1b2438"/><circle cx="1260" cy="200" r="1" fill="#1b2438"/><circle cx="1290" cy="200" r="1" fill="#1b2438"/><circle cx="1320" cy="200" r="1" fill="#1b2438"/><circle cx="1350" cy="200" r="1" fill="#1b2438"/><circle cx="1380" cy="200" r="1" fill="#1b2438"/><circle cx="1410" cy="200" r="1" fill="#1b2438"/><circle cx="1440" cy="200" r="1" fill="#1b2438"/><circle cx="1470" cy="200" r="1" fill="#1b2438"/><circle cx="1500" cy="200" r="1" fill="#1b2438"/><circle cx="1530" cy="200" r="1" fill="#1b2438"/><circle cx="1560" cy="200" r="1" fill="#1b2438"/><circle cx="30" cy="230" r="1" fill="#1b2438"/><circle cx="60" cy="230" r="1" fill="#1b2438"/><circle cx="90" cy="230" r="1" fill="#1b2438"/><circle cx="120" cy="230" r="1" fill="#1b2438"/><circle cx="150" cy="230" r="1" fill="#1b2438"/><circle cx="180" cy="230" r="1" fill="#1b2438"/><circle cx="210" cy="230" r="1" fill="#1b2438"/><circle cx="240" cy="230" r="1" fill="#1b2438"/><circle cx="270" cy="230" r="1" fill="#1b2438"/><circle cx="300" cy="230" r="1" fill="#1b2438"/><circle cx="330" cy="230" r="1" fill="#1b2438"/><circle cx="360" cy="230" r="1" fill="#1b2438"/><circle cx="390" cy="230" r="1" fill="#1b2438"/><circle cx="420" cy="230" r="1" fill="#1b2438"/><circle cx="450" cy="230" r="1" fill="#1b2438"/><circle cx="480" cy="230" r="1" fill="#1b2438"/><circle cx="510" cy="230" r="1" fill="#1b2438"/><circle cx="540" cy="230" r="1" fill="#1b2438"/><circle cx="570" cy="230" r="1" fill="#1b2438"/><circle cx="600" cy="230" r="1" fill="#1b2438"/><circle cx="630" cy="230" r="1" fill="#1b2438"/><circle cx="660" cy="230" r="1" fill="#1b2438"/><circle cx="690" cy="230" r="1" fill="#1b2438"/><circle cx="720" cy="230" r="1" fill="#1b2438"/><circle cx="750" cy="230" r="1" fill="#1b2438"/><circle cx="780" cy="230" r="1" fill="#1b2438"/><circle cx="810" cy="230" r="1" fill="#1b2438"/><circle cx="840" cy="230" r="1" fill="#1b2438"/><circle cx="870" cy="230" r="1" fill="#1b2438"/><circle cx="900" cy="230" r="1" fill="#1b2438"/><circle cx="930" cy="230" r="1" fill="#1b2438"/><circle cx="960" cy="230" r="1" fill="#1b2438"/><circle cx="990" cy="230" r="1" fill="#1b2438"/><circle cx="1020" cy="230" r="1" fill="#1b2438"/><circle cx="1050" cy="230" r="1" fill="#1b2438"/><circle cx="1080" cy="230" r="1" fill="#1b2438"/><circle cx="1110" cy="230" r="1" fill="#1b2438"/><circle cx="1140" cy="230" r="1" fill="#1b2438"/><circle cx="1170" cy="230" r="1" fill="#1b2438"/><circle cx="1200" cy="230" r="1" fill="#1b2438"/><circle cx="1230" cy="230" r="1" fill="#1b2438"/><circle cx="1260" cy="230" r="1" fill="#1b2438"/><circle cx="1290" cy="230" r="1" fill="#1b2438"/><circle cx="1320" cy="230" r="1" fill="#1b2438"/><circle cx="1350" cy="230" r="1" fill="#1b2438"/><circle cx="1380" cy="230" r="1" fill="#1b2438"/><circle cx="1410" cy="230" r="1" fill="#1b2438"/><circle cx="1440" cy="230" r="1" fill="#1b2438"/><circle cx="1470" cy="230" r="1" fill="#1b2438"/><circle cx="1500" cy="230" r="1" fill="#1b2438"/><circle cx="1530" cy="230" r="1" fill="#1b2438"/><circle cx="1560" cy="230" r="1" fill="#1b2438"/><circle cx="30" cy="260" r="1" fill="#1b2438"/><circle cx="60" cy="260" r="1" fill="#1b2438"/><circle cx="90" cy="260" r="1" fill="#1b2438"/><circle cx="120" cy="260" r="1" fill="#1b2438"/><circle cx="150" cy="260" r="1" fill="#1b2438"/><circle cx="180" cy="260" r="1" fill="#1b2438"/><circle cx="210" cy="260" r="1" fill="#1b2438"/><circle cx="240" cy="260" r="1" fill="#1b2438"/><circle cx="270" cy="260" r="1" fill="#1b2438"/><circle cx="300" cy="260" r="1" fill="#1b2438"/><circle cx="330" cy="260" r="1" fill="#1b2438"/><circle cx="360" cy="260" r="1" fill="#1b2438"/><circle cx="390" cy="260" r="1" fill="#1b2438"/><circle cx="420" cy="260" r="1" fill="#1b2438"/><circle cx="450" cy="260" r="1" fill="#1b2438"/><circle cx="480" cy="260" r="1" fill="#1b2438"/><circle cx="510" cy="260" r="1" fill="#1b2438"/><circle cx="540" cy="260" r="1" fill="#1b2438"/><circle cx="570" cy="260" r="1" fill="#1b2438"/><circle cx="600" cy="260" r="1" fill="#1b2438"/><circle cx="630" cy="260" r="1" fill="#1b2438"/><circle cx="660" cy="260" r="1" fill="#1b2438"/><circle cx="690" cy="260" r="1" fill="#1b2438"/><circle cx="720" cy="260" r="1" fill="#1b2438"/><circle cx="750" cy="260" r="1" fill="#1b2438"/><circle cx="780" cy="260" r="1" fill="#1b2438"/><circle cx="810" cy="260" r="1" fill="#1b2438"/><circle cx="840" cy="260" r="1" fill="#1b2438"/><circle cx="870" cy="260" r="1" fill="#1b2438"/><circle cx="900" cy="260" r="1" fill="#1b2438"/><circle cx="930" cy="260" r="1" fill="#1b2438"/><circle cx="960" cy="260" r="1" fill="#1b2438"/><circle cx="990" cy="260" r="1" fill="#1b2438"/><circle cx="1020" cy="260" r="1" fill="#1b2438"/><circle cx="1050" cy="260" r="1" fill="#1b2438"/><circle cx="1080" cy="260" r="1" fill="#1b2438"/><circle cx="1110" cy="260" r="1" fill="#1b2438"/><circle cx="1140" cy="260" r="1" fill="#1b2438"/><circle cx="1170" cy="260" r="1" fill="#1b2438"/><circle cx="1200" cy="260" r="1" fill="#1b2438"/><circle cx="1230" cy="260" r="1" fill="#1b2438"/><circle cx="1260" cy="260" r="1" fill="#1b2438"/><circle cx="1290" cy="260" r="1" fill="#1b2438"/><circle cx="1320" cy="260" r="1" fill="#1b2438"/><circle cx="1350" cy="260" r="1" fill="#1b2438"/><circle cx="1380" cy="260" r="1" fill="#1b2438"/><circle cx="1410" cy="260" r="1" fill="#1b2438"/><circle cx="1440" cy="260" r="1" fill="#1b2438"/><circle cx="1470" cy="260" r="1" fill="#1b2438"/><circle cx="1500" cy="260" r="1" fill="#1b2438"/><circle cx="1530" cy="260" r="1" fill="#1b2438"/><circle cx="1560" cy="260" r="1" fill="#1b2438"/><circle cx="30" cy="290" r="1" fill="#1b2438"/><circle cx="60" cy="290" r="1" fill="#1b2438"/><circle cx="90" cy="290" r="1" fill="#1b2438"/><circle cx="120" cy="290" r="1" fill="#1b2438"/><circle cx="150" cy="290" r="1" fill="#1b2438"/><circle cx="180" cy="290" r="1" fill="#1b2438"/><circle cx="210" cy="290" r="1" fill="#1b2438"/><circle cx="240" cy="290" r="1" fill="#1b2438"/><circle cx="270" cy="290" r="1" fill="#1b2438"/><circle cx="300" cy="290" r="1" fill="#1b2438"/><circle cx="330" cy="290" r="1" fill="#1b2438"/><circle cx="360" cy="290" r="1" fill="#1b2438"/><circle cx="390" cy="290" r="1" fill="#1b2438"/><circle cx="420" cy="290" r="1" fill="#1b2438"/><circle cx="450" cy="290" r="1" fill="#1b2438"/><circle cx="480" cy="290" r="1" fill="#1b2438"/><circle cx="510" cy="290" r="1" fill="#1b2438"/><circle cx="540" cy="290" r="1" fill="#1b2438"/><circle cx="570" cy="290" r="1" fill="#1b2438"/><circle cx="600" cy="290" r="1" fill="#1b2438"/><circle cx="630" cy="290" r="1" fill="#1b2438"/><circle cx="660" cy="290" r="1" fill="#1b2438"/><circle cx="690" cy="290" r="1" fill="#1b2438"/><circle cx="720" cy="290" r="1" fill="#1b2438"/><circle cx="750" cy="290" r="1" fill="#1b2438"/><circle cx="780" cy="290" r="1" fill="#1b2438"/><circle cx="810" cy="290" r="1" fill="#1b2438"/><circle cx="840" cy="290" r="1" fill="#1b2438"/><circle cx="870" cy="290" r="1" fill="#1b2438"/><circle cx="900" cy="290" r="1" fill="#1b2438"/><circle cx="930" cy="290" r="1" fill="#1b2438"/><circle cx="960" cy="290" r="1" fill="#1b2438"/><circle cx="990" cy="290" r="1" fill="#1b2438"/><circle cx="1020" cy="290" r="1" fill="#1b2438"/><circle cx="1050" cy="290" r="1" fill="#1b2438"/><circle cx="1080" cy="290" r="1" fill="#1b2438"/><circle cx="1110" cy="290" r="1" fill="#1b2438"/><circle cx="1140" cy="290" r="1" fill="#1b2438"/><circle cx="1170" cy="290" r="1" fill="#1b2438"/><circle cx="1200" cy="290" r="1" fill="#1b2438"/><circle cx="1230" cy="290" r="1" fill="#1b2438"/><circle cx="1260" cy="290" r="1" fill="#1b2438"/><circle cx="1290" cy="290" r="1" fill="#1b2438"/><circle cx="1320" cy="290" r="1" fill="#1b2438"/><circle cx="1350" cy="290" r="1" fill="#1b2438"/><circle cx="1380" cy="290" r="1" fill="#1b2438"/><circle cx="1410" cy="290" r="1" fill="#1b2438"/><circle cx="1440" cy="290" r="1" fill="#1b2438"/><circle cx="1470" cy="290" r="1" fill="#1b2438"/><circle cx="1500" cy="290" r="1" fill="#1b2438"/><circle cx="1530" cy="290" r="1" fill="#1b2438"/><circle cx="1560" cy="290" r="1" fill="#1b2438"/><circle cx="30" cy="320" r="1" fill="#1b2438"/><circle cx="60" cy="320" r="1" fill="#1b2438"/><circle cx="90" cy="320" r="1" fill="#1b2438"/><circle cx="120" cy="320" r="1" fill="#1b2438"/><circle cx="150" cy="320" r="1" fill="#1b2438"/><circle cx="180" cy="320" r="1" fill="#1b2438"/><circle cx="210" cy="320" r="1" fill="#1b2438"/><circle cx="240" cy="320" r="1" fill="#1b2438"/><circle cx="270" cy="320" r="1" fill="#1b2438"/><circle cx="300" cy="320" r="1" fill="#1b2438"/><circle cx="330" cy="320" r="1" fill="#1b2438"/><circle cx="360" cy="320" r="1" fill="#1b2438"/><circle cx="390" cy="320" r="1" fill="#1b2438"/><circle cx="420" cy="320" r="1" fill="#1b2438"/><circle cx="450" cy="320" r="1" fill="#1b2438"/><circle cx="480" cy="320" r="1" fill="#1b2438"/><circle cx="510" cy="320" r="1" fill="#1b2438"/><circle cx="540" cy="320" r="1" fill="#1b2438"/><circle cx="570" cy="320" r="1" fill="#1b2438"/><circle cx="600" cy="320" r="1" fill="#1b2438"/><circle cx="630" cy="320" r="1" fill="#1b2438"/><circle cx="660" cy="320" r="1" fill="#1b2438"/><circle cx="690" cy="320" r="1" fill="#1b2438"/><circle cx="720" cy="320" r="1" fill="#1b2438"/><circle cx="750" cy="320" r="1" fill="#1b2438"/><circle cx="780" cy="320" r="1" fill="#1b2438"/><circle cx="810" cy="320" r="1" fill="#1b2438"/><circle cx="840" cy="320" r="1" fill="#1b2438"/><circle cx="870" cy="320" r="1" fill="#1b2438"/><circle cx="900" cy="320" r="1" fill="#1b2438"/><circle cx="930" cy="320" r="1" fill="#1b2438"/><circle cx="960" cy="320" r="1" fill="#1b2438"/><circle cx="990" cy="320" r="1" fill="#1b2438"/><circle cx="1020" cy="320" r="1" fill="#1b2438"/><circle cx="1050" cy="320" r="1" fill="#1b2438"/><circle cx="1080" cy="320" r="1" fill="#1b2438"/><circle cx="1110" cy="320" r="1" fill="#1b2438"/><circle cx="1140" cy="320" r="1" fill="#1b2438"/><circle cx="1170" cy="320" r="1" fill="#1b2438"/><circle cx="1200" cy="320" r="1" fill="#1b2438"/><circle cx="1230" cy="320" r="1" fill="#1b2438"/><circle cx="1260" cy="320" r="1" fill="#1b2438"/><circle cx="1290" cy="320" r="1" fill="#1b2438"/><circle cx="1320" cy="320" r="1" fill="#1b2438"/><circle cx="1350" cy="320" r="1" fill="#1b2438"/><circle cx="1380" cy="320" r="1" fill="#1b2438"/><circle cx="1410" cy="320" r="1" fill="#1b2438"/><circle cx="1440" cy="320" r="1" fill="#1b2438"/><circle cx="1470" cy="320" r="1" fill="#1b2438"/><circle cx="1500" cy="320" r="1" fill="#1b2438"/><circle cx="1530" cy="320" r="1" fill="#1b2438"/><circle cx="1560" cy="320" r="1" fill="#1b2438"/><circle cx="30" cy="350" r="1" fill="#1b2438"/><circle cx="60" cy="350" r="1" fill="#1b2438"/><circle cx="90" cy="350" r="1" fill="#1b2438"/><circle cx="120" cy="350" r="1" fill="#1b2438"/><circle cx="150" cy="350" r="1" fill="#1b2438"/><circle cx="180" cy="350" r="1" fill="#1b2438"/><circle cx="210" cy="350" r="1" fill="#1b2438"/><circle cx="240" cy="350" r="1" fill="#1b2438"/><circle cx="270" cy="350" r="1" fill="#1b2438"/><circle cx="300" cy="350" r="1" fill="#1b2438"/><circle cx="330" cy="350" r="1" fill="#1b2438"/><circle cx="360" cy="350" r="1" fill="#1b2438"/><circle cx="390" cy="350" r="1" fill="#1b2438"/><circle cx="420" cy="350" r="1" fill="#1b2438"/><circle cx="450" cy="350" r="1" fill="#1b2438"/><circle cx="480" cy="350" r="1" fill="#1b2438"/><circle cx="510" cy="350" r="1" fill="#1b2438"/><circle cx="540" cy="350" r="1" fill="#1b2438"/><circle cx="570" cy="350" r="1" fill="#1b2438"/><circle cx="600" cy="350" r="1" fill="#1b2438"/><circle cx="630" cy="350" r="1" fill="#1b2438"/><circle cx="660" cy="350" r="1" fill="#1b2438"/><circle cx="690" cy="350" r="1" fill="#1b2438"/><circle cx="720" cy="350" r="1" fill="#1b2438"/><circle cx="750" cy="350" r="1" fill="#1b2438"/><circle cx="780" cy="350" r="1" fill="#1b2438"/><circle cx="810" cy="350" r="1" fill="#1b2438"/><circle cx="840" cy="350" r="1" fill="#1b2438"/><circle cx="870" cy="350" r="1" fill="#1b2438"/><circle cx="900" cy="350" r="1" fill="#1b2438"/><circle cx="930" cy="350" r="1" fill="#1b2438"/><circle cx="960" cy="350" r="1" fill="#1b2438"/><circle cx="990" cy="350" r="1" fill="#1b2438"/><circle cx="1020" cy="350" r="1" fill="#1b2438"/><circle cx="1050" cy="350" r="1" fill="#1b2438"/><circle cx="1080" cy="350" r="1" fill="#1b2438"/><circle cx="1110" cy="350" r="1" fill="#1b2438"/><circle cx="1140" cy="350" r="1" fill="#1b2438"/><circle cx="1170" cy="350" r="1" fill="#1b2438"/><circle cx="1200" cy="350" r="1" fill="#1b2438"/><circle cx="1230" cy="350" r="1" fill="#1b2438"/><circle cx="1260" cy="350" r="1" fill="#1b2438"/><circle cx="1290" cy="350" r="1" fill="#1b2438"/><circle cx="1320" cy="350" r="1" fill="#1b2438"/><circle cx="1350" cy="350" r="1" fill="#1b2438"/><circle cx="1380" cy="350" r="1" fill="#1b2438"/><circle cx="1410" cy="350" r="1" fill="#1b2438"/><circle cx="1440" cy="350" r="1" fill="#1b2438"/><circle cx="1470" cy="350" r="1" fill="#1b2438"/><circle cx="1500" cy="350" r="1" fill="#1b2438"/><circle cx="1530" cy="350" r="1" fill="#1b2438"/><circle cx="1560" cy="350" r="1" fill="#1b2438"/></g><text x="64.0" y="96.0" font-family="Inter, 'Segoe UI', 'Helvetica Neue', Arial, sans-serif" font-size="64" font-weight="800" fill="url(#word)" text-anchor="start" letter-spacing="0.02em">q1729</text><text x="67.0" y="126.0" font-family="Inter, 'Segoe UI', 'Helvetica Neue', Arial, sans-serif" font-size="13" font-weight="700" fill="#4ade80" text-anchor="start" letter-spacing="0.13em">RAMANUJAN&#x27;S MATHEMATICS MEETS THE NVIDIA STACK</text><rect x="67.0" y="138.0" width="170.0" height="3.0" rx="1.5" ry="1.5" fill="url(#rule)"/><text x="64.0" y="186.0" font-family="Inter, 'Segoe UI', 'Helvetica Neue', Arial, sans-serif" font-size="30" font-weight="800" fill="#f1f5f9" text-anchor="start">How fast can a GPU compute π —</text><text x="64.0" y="222.0" font-family="Inter, 'Segoe UI', 'Helvetica Neue', Arial, sans-serif" font-size="30" font-weight="800" fill="#f1f5f9" text-anchor="start">classically, and as a quantum computer?</text><text x="66.0" y="258.0" font-family="Inter, 'Segoe UI', 'Helvetica Neue', Arial, sans-serif" font-size="15.5" font-weight="500" fill="#94a3b8" text-anchor="start">Consumer RTX to datacenter H100 — with an AI layer</text><text x="66.0" y="280.0" font-family="Inter, 'Segoe UI', 'Helvetica Neue', Arial, sans-serif" font-size="15.5" font-weight="500" fill="#94a3b8" text-anchor="start">that writes up what the numbers show.</text><rect x="64.0" y="310.0" width="372.0" height="40.0" rx="20.0" ry="20.0" fill="none" stroke="#60a5fa" stroke-width="1.6"/><text x="250.0" y="335.0" font-family="Inter, 'Segoe UI', 'Helvetica Neue', Arial, sans-serif" font-size="15" font-weight="700" fill="#60a5fa" text-anchor="middle" letter-spacing="0.02em">1729 = 1³ + 12³ = 9³ + 10³</text><rect x="856.0" y="78.0" width="684.0" height="244.0" rx="20" ry="20" fill="#111827" stroke="#233047" stroke-width="1.4" opacity="0.95"/><circle cx="882.0" cy="112.0" r="4.5" fill="#76B900"/><text x="896.0" y="117.0" font-family="Inter, 'Segoe UI', 'Helvetica Neue', Arial, sans-serif" font-size="13" font-weight="700" fill="#94a3b8" text-anchor="start" letter-spacing="0.13em">PIPELINE AT A GLANCE</text><g filter="url(#soft)"><rect x="892.0" y="224.0" width="148.0" height="68.0" rx="10" ry="10" fill="#B45309"/></g><rect x="893.0" y="225.0" width="146.0" height="37.4" rx="9" ry="9" fill="url(#sheen)" opacity="0.14"/><text x="966.0" y="263.0" font-family="Inter, 'Segoe UI', 'Helvetica Neue', Arial, sans-serif" font-size="13.5" font-weight="700" fill="#ffffff" text-anchor="middle">Ramanujan</text><text x="966.0" y="280.0" font-family="Inter, 'Segoe UI', 'Helvetica Neue', Arial, sans-serif" font-size="10.5" font-weight="500" fill="#ffffff" text-anchor="middle" opacity="0.88">1914 series</text><g filter="url(#soft)"><rect x="1046.7" y="224.0" width="148.0" height="68.0" rx="10" ry="10" fill="#76B900"/></g><rect x="1047.7" y="225.0" width="146.0" height="37.4" rx="9" ry="9" fill="url(#sheen)" opacity="0.14"/><text x="1120.7" y="263.0" font-family="Inter, 'Segoe UI', 'Helvetica Neue', Arial, sans-serif" font-size="13.5" font-weight="700" fill="#ffffff" text-anchor="middle">CUDA-Q</text><text x="1120.7" y="280.0" font-family="Inter, 'Segoe UI', 'Helvetica Neue', Arial, sans-serif" font-size="10.5" font-weight="500" fill="#ffffff" text-anchor="middle" opacity="0.88">silicon</text><g filter="url(#soft)"><rect x="1201.3" y="224.0" width="148.0" height="68.0" rx="10" ry="10" fill="#DC2626"/></g><rect x="1202.3" y="225.0" width="146.0" height="37.4" rx="9" ry="9" fill="url(#sheen)" opacity="0.14"/><text x="1275.3" y="263.0" font-family="Inter, 'Segoe UI', 'Helvetica Neue', Arial, sans-serif" font-size="13.5" font-weight="700" fill="#ffffff" text-anchor="middle">Crossover</text><text x="1275.3" y="280.0" font-family="Inter, 'Segoe UI', 'Helvetica Neue', Arial, sans-serif" font-size="10.5" font-weight="500" fill="#ffffff" text-anchor="middle" opacity="0.88">analysis</text><g filter="url(#soft)"><rect x="1356.0" y="224.0" width="148.0" height="68.0" rx="10" ry="10" fill="#0EA5E9"/></g><rect x="1357.0" y="225.0" width="146.0" height="37.4" rx="9" ry="9" fill="url(#sheen)" opacity="0.14"/><text x="1430.0" y="263.0" font-family="Inter, 'Segoe UI', 'Helvetica Neue', Arial, sans-serif" font-size="13.5" font-weight="700" fill="#ffffff" text-anchor="middle">NIM</text><text x="1430.0" y="280.0" font-family="Inter, 'Segoe UI', 'Helvetica Neue', Arial, sans-serif" font-size="10.5" font-weight="500" fill="#ffffff" text-anchor="middle" opacity="0.88">narrator</text><line x1="1044.0" y1="258.0" x2="1042.7" y2="258.0" stroke="#7c8aa5" stroke-width="2.2" stroke-linecap="round" marker-end="url(#bah)"/><line x1="1198.7" y1="258.0" x2="1197.3" y2="258.0" stroke="#7c8aa5" stroke-width="2.2" stroke-linecap="round" marker-end="url(#bah)"/><line x1="1353.3" y1="258.0" x2="1352.0" y2="258.0" stroke="#7c8aa5" stroke-width="2.2" stroke-linecap="round" marker-end="url(#bah)"/></svg>